<?xml version="1.0" encoding="UTF-8"?>
<svg width="568px" height="479px" viewBox="0 0 568 479" version="1.1" xmlns="http://www.w3.org/2000/svg" xmlns:xlink="http://www.w3.org/1999/xlink">
    <title>Compass Light</title>
    <g id="Compass-Light" stroke="none" stroke-width="1" fill="none" fill-rule="evenodd">
        <g id="Groupq" transform="translate(163.000000, 102.000000)">
            <g id="kaaba-solid" transform="translate(97.000000, 0.000000)" fill="#000000" fill-rule="nonzero">
                <path d="M46.1766667,7.17781786 L26.53,0.423539516 C24.8880488,-0.141179839 23.1127846,-0.141179839 21.4708333,0.423539516 L1.82333333,7.17781786 C0.734478831,7.55238205 0,8.6034735 0,9.78738634 L0,14 L22.085,7.16578428 C23.3375,6.77899053 24.6616667,6.77899053 25.9166667,7.16578428 L48,14 L48,9.78738634 C48,8.60379747 47.2658333,7.55257803 46.1766667,7.17781786 Z M22.8512699,10.1784922 L0,17.3768021 L0,37.3591775 C0,38.67162 0.868318258,39.8073203 2.08829708,40.0925578 L22.2646135,44.7998518 C23.4075786,45.0667161 24.5924214,45.0667161 25.7353865,44.7998518 L45.9117029,40.0925578 C47.1316817,39.8081953 48,38.67162 48,37.3591775 L48,17.3759272 L25.1503967,10.1784922 C24.3970764,9.9405026 23.6012569,9.9405026 22.8512699,10.1784922 Z M11,20.2594048 C11,20.5911404 10.7991667,20.8815239 10.5091667,20.9688227 L3.8425,22.9739389 C3.41833333,23.100752 3,22.7487999 3,22.2645211 L3,20.7409268 C3,20.4091913 3.20083333,20.1188078 3.49083333,20.031509 L10.1575,18.0263927 C10.5816667,17.8986607 11,18.2506129 11,18.7358106 L11,20.2594048 Z M22,17.0916591 C22,17.3987655 21.8063393,17.6675899 21.5266964,17.7484074 L13.8124107,19.9755668 C13.4033929,20.0938155 13,19.7679935 13,19.3188185 L13,17.9083409 C13,17.6012345 13.1936607,17.3324101 13.4733036,17.2515926 L21.1875893,15.0244332 C21.5966071,14.9061845 22,15.2320065 22,15.6811815 L22,17.0916591 L22,17.0916591 Z M38,18.7357618 C38,18.2505962 38.4183335,17.8986675 38.8425001,18.026391 L45.5091667,20.0313742 C45.7991667,20.1186673 46,20.4090315 46,20.740745 L46,22.2642382 C46,22.7494038 45.5816667,23.1013325 45.1575,22.973609 L38.4908335,20.9686258 C38.2008527,20.8812952 37.9997911,20.5907134 38,20.259255 L38,18.7357618 L38,18.7357618 Z M25,15.6811815 C25,15.2320065 25.403393,14.9061845 25.8124109,15.0244332 L33.5266964,17.2515926 C33.8063393,17.3324101 34,17.6012345 34,17.9083409 L34,19.3188185 C34,19.7679935 33.5966071,20.0938155 33.1875893,19.9755668 L25.4733037,17.7484074 C25.1936794,17.6675552 24.9997986,17.3985293 25,17.0916591 L25,15.6811815 Z" id="Shape"></path>
            </g>
            <rect id="Rectangle" fill="#A59573" x="112" y="89" width="18" height="99" rx="9"></rect>
            <circle id="Oval" stroke="#4A4A4A" fill="#4A4A4A" cx="121" cy="179" r="8.5"></circle>
            <ellipse id="Oval" stroke="#4A4A4A" stroke-width="20" cx="121.502075" cy="179" rx="111.502075" ry="111"></ellipse>
        </g>
    </g>
</svg>