<?xml version="1.0" encoding="UTF-8"?>
<svg width="272px" height="272px" viewBox="0 0 272 272" version="1.1" xmlns="http://www.w3.org/2000/svg" xmlns:xlink="http://www.w3.org/1999/xlink">
    <title>Icon Light 256x256</title>
    <g id="Icon-Light-256x256" stroke="none" stroke-width="1" fill="none" fill-rule="evenodd">
        <g id="iOS-icon-Copy" transform="translate(43.381022, 36.790187)" fill-rule="nonzero">
            <g id="Group">
                <path d="M132.332234,22.1687352 C132.281888,22.6840809 132.325168,23.1985396 132.250091,23.7138853 L129.311474,42.6477397 C150.804797,55.4089766 165.287661,78.8266046 165.287661,105.661835 C165.287661,146.041521 132.575131,178.904789 92.3707646,178.904789 C52.1540323,178.904789 19.4476854,146.041521 19.4476854,105.661835 C19.4476854,95.5633655 21.504805,85.9358917 25.2012608,77.1688058 L11.2183238,61.4059685 C4.07095932,74.5876423 -5.68434189e-14,89.6532994 -5.68434189e-14,105.661835 C-5.68434189e-14,156.79903 41.4356354,198.416966 92.3707646,198.416966 C143.300594,198.416966 184.730047,156.79903 184.730047,105.661835 C184.730047,68.9099696 163.273821,37.1714155 132.332234,22.1687352 Z" id="Path" fill="#6E6F72"></path>
                <path d="M88.7440866,32.6113599 L91.1333131,17.2751685 C91.3576619,15.7495324 91.8028265,14.298404 92.3530994,12.9040435 C72.5035293,12.9102525 54.1625724,19.3037324 39.0843892,30.0301964 L52.0922039,44.6559026 C62.6913602,37.5918524 75.2610765,33.2961222 88.7440866,32.6113599 Z" id="Path" fill="#6E6F72"></path>
                <path d="M123.7584,7.81799833 C122.7135,3.89924219 119.480757,0.771688058 115.222546,0.0940217634 C114.727919,0.0248359375 114.252723,0 113.777527,0 C110.650776,0 107.861432,1.43782338 105.859958,3.68015374 C104.578343,5.16853599 103.540509,6.85117076 103.227834,8.92408454 L101.045291,22.9661462 L88.7440866,101.446822 L43.4945215,50.5296018 L30.3992638,35.8276138 L27.3034269,32.3550176 C25.2268755,30.0000385 22.3377221,28.7883996 19.4238373,28.7883996 C16.940985,28.7883996 14.4519497,29.6612054 12.4504757,31.4697938 C8.10482158,35.3379911 7.71706911,42.0268412 11.5760453,46.3979662 L16.2785377,51.672942 L29.8101273,66.9142246 L87.8678897,132.263785 C89.8817294,134.549578 92.7576339,135.793149 95.7289307,135.793149 C96.7040531,135.793149 97.6986073,135.636151 98.6807958,135.391339 C102.590118,134.223163 105.491637,130.895148 106.116987,126.869952 L121.575857,27.9971975 L124.026912,12.1775924 C124.258327,10.6634872 124.133787,9.19994085 123.7584,7.81799833 Z" id="Path" fill="#A59573"></path>
            </g>
        </g>
    </g>
</svg>