<?xml version="1.0" encoding="UTF-8"?>
<svg width="512px" height="512px" viewBox="0 0 512 512" version="1.1" xmlns="http://www.w3.org/2000/svg" xmlns:xlink="http://www.w3.org/1999/xlink">
    <!-- Generator: Sketch 52.6 (67491) - http://www.bohemiancoding.com/sketch -->
    <title>Icon Light 512x512</title>
    <desc>Created with Sketch.</desc>
    <g id="Icon-Light-512x512" stroke="none" stroke-width="1" fill="none" fill-rule="evenodd">
        <rect fill="#FFFFFF" x="0" y="0" width="512" height="512"></rect>
        <g id="iOS-icon-Copy" transform="translate(81.000000, 69.000000)" fill-rule="nonzero">
            <g id="Group">
                <path d="M249.754365,41.9815 C249.659596,42.9515625 249.741064,43.9199554 249.599742,44.8900179 L244.068229,80.5302143 C284.526248,104.551366 311.788109,148.631607 311.788109,199.144982 C311.788109,275.153804 250.211583,337.014071 174.532775,337.014071 C98.8306907,337.014071 37.2658025,275.153804 37.2658025,199.144982 C37.2658025,180.136098 41.1380277,162.013795 48.0960621,145.511045 L21.7752394,115.839821 C8.3213769,140.652384 0.658394656,169.011268 0.658394656,199.144982 C0.658394656,295.403232 78.6548848,373.742875 174.532775,373.742875 C270.40069,373.742875 348.385542,295.403232 348.385542,199.144982 C348.385542,129.965 307.997352,70.2218393 249.754365,41.9815 Z" id="Path" fill="#6E6F72"></path>
                <path d="M167.706087,61.6382054 L172.203455,32.7700804 C172.625758,29.8982946 173.463715,27.1667589 174.499523,24.5420804 C137.135626,24.5537679 102.611472,36.5885536 74.2290096,56.7795446 L98.7143078,84.3102857 C118.665661,71.01325 142.326303,62.9271696 167.706087,61.6382054 Z" id="Path" fill="#6E6F72"></path>
                <path d="M233.615382,14.9683482 C231.648512,7.59186607 225.563349,1.70470536 217.547893,0.429098214 C216.61683,0.298866071 215.722344,0.252116071 214.827858,0.252116071 C208.942209,0.252116071 203.691678,2.95860714 199.924197,7.17946429 C197.511746,9.981125 195.558176,13.1484375 194.969611,17.0503929 L190.861295,43.4825089 L167.706087,191.210839 L82.5304351,95.3666607 L57.8805382,67.6923304 L52.0530805,61.1556786 C48.1442779,56.7227768 42.7058715,54.4420446 37.220912,54.4420446 C32.5473075,54.4420446 27.8620647,56.0849732 24.0945842,59.489375 C15.9145294,66.7706875 15.1846424,79.3614643 22.4485976,87.5894643 L31.3003479,97.5188304 L56.7715755,126.208304 L166.056775,249.219241 C169.847532,253.521911 175.261,255.86275 180.854029,255.86275 C182.689553,255.86275 184.561655,255.567223 186.410481,255.106402 C193.769205,252.907482 199.230888,246.642982 200.408018,239.066143 L229.507066,52.9527232 L234.120817,23.1746429 C234.556421,20.3245625 234.321993,17.5696518 233.615382,14.9683482 Z" id="Path" fill="#9A9D14"></path>
            </g>
        </g>
    </g>
</svg>