<?xml version="1.0" encoding="UTF-8"?>
<svg width="512px" height="512px" viewBox="0 0 512 512" version="1.1" xmlns="http://www.w3.org/2000/svg" xmlns:xlink="http://www.w3.org/1999/xlink">
    <title>Icon Light 512x512</title>
    <g id="Icon-Light-512x512" stroke="none" stroke-width="1" fill="none" fill-rule="evenodd">
        <rect fill="#FFFFFF" x="0" y="0" width="512" height="512"></rect>
        <g id="iOS-icon-Copy" transform="translate(81.658395, 69.252116)" fill-rule="nonzero">
            <g id="Group">
                <path d="M249.09597,41.7293839 C249.001201,42.6994464 249.082669,43.6678393 248.941347,44.6379018 L243.409834,80.2780982 C283.867853,104.29925 311.129715,148.379491 311.129715,198.892866 C311.129715,274.901687 249.553188,336.761955 173.874381,336.761955 C98.172296,336.761955 36.6074079,274.901687 36.6074079,198.892866 C36.6074079,179.883982 40.479633,161.761679 47.4376675,145.258929 L21.1168447,115.587705 C7.66298224,140.400268 0,168.759152 0,198.892866 C0,295.151116 77.9964901,373.490759 173.874381,373.490759 C269.742295,373.490759 347.727147,295.151116 347.727147,198.892866 C347.727147,129.712884 307.338958,69.9697232 249.09597,41.7293839 Z" id="Path" fill="#6E6F72"></path>
                <path d="M167.047692,61.3860893 L171.54506,32.5179643 C171.967364,29.6461786 172.805321,26.9146429 173.841128,24.2899643 C136.477232,24.3016518 101.953077,36.3364375 73.5706149,56.5274286 L98.0559131,84.0581696 C118.007266,70.7611339 141.667909,62.6750536 167.047692,61.3860893 Z" id="Path" fill="#6E6F72"></path>
                <path d="M232.956988,14.7162321 C230.990117,7.33975 224.904954,1.45258929 216.889498,0.176982143 C215.958435,0.04675 215.063949,0 214.169464,0 C208.283814,0 203.033283,2.70649107 199.265803,6.92734821 C196.853352,9.72900893 194.899782,12.8963214 194.311217,16.7982768 L190.2029,43.2303929 L167.047692,190.958723 L81.8720405,95.1145446 L57.2221436,67.4402143 L51.3946858,60.9035625 C47.4858832,56.4706607 42.0474769,54.1899286 36.5625173,54.1899286 C31.8889129,54.1899286 27.2036701,55.8328571 23.4361896,59.2372589 C15.2561347,66.5185714 14.5262477,79.1093482 21.7902029,87.3373482 L30.6419533,97.2667143 L56.1131809,125.956188 L165.398381,248.967125 C169.189138,253.269795 174.602605,255.610634 180.195634,255.610634 C182.031159,255.610634 183.903261,255.315107 185.752086,254.854286 C193.11081,252.655366 198.572493,246.390866 199.749623,238.814027 L228.848672,52.7006071 L233.462422,22.9225268 C233.898027,20.0724464 233.663598,17.3175357 232.956988,14.7162321 Z" id="Path" fill="#A59573"></path>
            </g>
        </g>
    </g>
</svg>