<?xml version="1.0" encoding="UTF-8"?>
<svg width="875px" height="601px" viewBox="0 0 875 601" version="1.1" xmlns="http://www.w3.org/2000/svg" xmlns:xlink="http://www.w3.org/1999/xlink">
    <title>Logo Dark</title>
    <g id="Logo-Dark" stroke="none" stroke-width="1" fill="none" fill-rule="evenodd">
        <rect fill="#4A4A4A" x="0" y="0" width="875" height="601"></rect>
        <g id="logo" transform="translate(279.293354, 240.023734)" fill-rule="nonzero">
            <g id="Group" transform="translate(-0.000000, 0.000000)">
                <path d="M30.0664557,25.0224684 C36.168038,20.9496835 43.3670886,18.4386076 51.1405063,18.0512658 L51.2658228,17.2281646 L52.5056962,9.24113924 C52.6414557,8.38670886 52.9556962,6.75 52.8227848,6.75 C41.5433544,6.83449367 31.1335443,10.5142405 22.5560127,16.6139241 L29.7598101,24.6778481 L30.0664557,25.0224684 Z" id="Path" fill="#FFFFFF"></path>
                <path d="M92.8822785,81.8287975 L89.1123418,81.7974684 C88.9101266,82.1117089 88.2674051,83.0506329 88.0585443,83.3648734 C80.5063291,94.5806962 67.7268987,101.993354 53.2243671,101.993354 C30.0541139,101.993354 11.2063291,83.1398734 11.2063291,59.9724684 C11.2063291,54.1851266 12.4462025,48.7025316 14.5813291,43.6879747 L13.0281646,41.9420886 L6.55537975,34.6936709 C2.44272152,42.2297468 0,50.8006329 0,59.9724684 C0,89.3136076 23.8746835,113.193987 53.2243671,113.193987 C74.775,113.193987 93.3360759,100.29019 101.697152,81.8287975 L98.0060127,81.8287975 L92.8822785,81.8287975 Z" id="Path" fill="#FFFFFF"></path>
                <path d="M71.0155063,4.43829114 C70.4155063,2.21107595 68.5727848,0.433860759 66.1518987,0.0569620253 C65.8718354,0.0199367089 65.5984177,0 65.3240506,0 C63.5525316,0 61.95,0.825949367 60.8155063,2.1 C60.0863924,2.92974684 59.4949367,3.88860759 59.3117089,5.05727848 L58.0718354,13.0300633 L51.0721519,57.5506329 L25.2882911,28.6708861 L17.8376582,20.3221519 L16.0746835,18.3550633 C14.8898734,17.0193038 13.2417722,16.3376582 11.5832278,16.3376582 C10.1753165,16.3376582 8.75411392,16.8351266 7.61487342,17.8518987 C5.13512658,20.053481 4.91487342,23.8490506 7.11360759,26.3174051 L9.78987342,29.3117089 L17.4996835,37.9556962 L50.5661392,75.0227848 C51.7167722,76.3167722 53.3553797,77.0297468 55.0424051,77.0297468 C55.6006329,77.0297468 56.1702532,76.9443038 56.7303797,76.7876582 C58.9556962,76.1363924 60.6066456,74.25 60.9664557,71.9544304 L69.7642405,15.8867089 L71.1617089,6.90379747 C71.296519,6.04841772 71.2253165,5.21867089 71.0155063,4.43829114 Z" id="Path" fill="#A59573"></path>
            </g>
            <g id="Group" transform="translate(72.784177, 20.471203)">
                <path d="M12.0351266,14.9079114 C15,14.9079114 23.1265823,15.768038 29.8765823,17.6382911 L29.9553797,54.7794304 L22.3110759,54.7794304 L21.3996835,52.0481013 C18.2667722,54.1518987 14.4797468,55.246519 11.6705696,55.246519 C3.55632911,55.246519 1.24556962,48.8468354 0.507911392,41.8281646 C0.245886076,39.3313291 0.0683544304,36.9113924 0,32.5452532 C0.0313291139,20.2167722 3.37594937,14.9079114 12.0351266,14.9079114 Z M10.1325949,33.946519 C10.3025316,37.7667722 10.5598101,42.4575949 11.2310127,45.8838608 C11.8158228,48.4594937 12.7946203,48.8468354 14.7655063,48.3075949 C16.7344937,47.7607595 18.5022152,46.7449367 20.3553797,45.8022152 L20.4968354,21.9313291 C18.2791139,21.6170886 15.9189873,21.4642405 14.2917722,21.5439873 C10.3291139,21.6968354 9.99873418,30.4338608 10.1325949,33.946519 Z" id="Shape" fill="#FFFFFF"></path>
                <polygon id="Path" fill="#FFFFFF" points="36.8031646 1.8 46.8702532 1.8 46.6917722 28.3310127 47.9544304 28.3310127 53.5870253 14.906962 64.1155063 14.906962 56.5585443 32.1512658 68.8955696 54.5439873 58.1297468 54.5439873 47.9041139 35.9772152 46.7155063 35.9772152 46.5598101 54.5439873 36.5705696 54.5439873"></polygon>
                <path d="M75.3702532,45.5705696 C75.2098101,44.0126582 75.1917722,42.3693038 75.2316456,22.7126582 L67.6632911,22.7126582 C67.7202532,20.2898734 67.7031646,17.8699367 67.7648734,15.5325949 L75.3360759,15.5325949 C75.4063291,12.4927215 75.4632911,9.29525316 75.4490506,6.24968354 L85.360443,6.24968354 L85.3993671,15.5325949 L93.2031646,15.5325949 C93.0626582,17.8708861 93.0778481,20.2908228 93.0218354,22.7126582 L85.2958861,22.7126582 L85.3015823,45.0265823 C85.6243671,48.0655063 86.643038,48.1471519 88.9072785,48.1471519 C89.8414557,48.1471519 91.1629747,48.0655063 93.6901899,47.5993671 C93.610443,49.8636076 93.7300633,51.739557 93.8041139,53.9183544 C93.8316456,54.1509494 93.7699367,54.3123418 93.7832278,54.4708861 C91.114557,55.0870253 89.1844937,55.2455698 87.8601266,55.2455698 C78.7291139,55.246519 76.0186709,51.7405063 75.3702532,45.5705696 Z" id="Path" fill="#FFFFFF"></path>
                <polygon id="Path" fill="#FFFFFF" points="98.943038 54.5449367 99.1357595 15.6056962 109.438291 15.6056962 109.239873 54.5449367"></polygon>
                <path d="M113.247152,62.2537975 C116.774051,61.6348101 117.289557,59.8367089 117.300949,57.7310127 L117.539241,15.5316456 L127.762025,15.5316456 L127.558861,56.5566456 C127.462025,66.0797468 123.454747,68.0306962 117.84019,68.0306962 C117.367405,68.0306962 116.588924,68.0306962 113.263291,67.5636076 L113.247152,62.2537975 Z" id="Path" fill="#FFFFFF"></path>
                <path d="M145.718354,14.9079114 C148.683228,14.9079114 156.810759,15.768038 163.560759,17.6382911 L163.643354,54.7794304 L155.992405,54.7794304 L155.083861,52.0481013 C151.950949,54.1518987 148.162025,55.246519 145.357595,55.246519 C137.236709,55.246519 134.933544,48.8468354 134.191139,41.8281646 C133.931013,39.3313291 133.751582,36.9113924 133.684177,32.5452532 C133.715506,20.2167722 137.056329,14.9079114 145.718354,14.9079114 Z M143.81962,33.946519 C143.986709,37.7667722 144.243987,42.4575949 144.912342,45.8838608 C145.497152,48.4594937 146.479747,48.8468354 148.446835,48.3075949 C150.42057,47.7607595 152.185443,46.7449367 154.040506,45.8022152 L154.179114,21.9313291 C151.967089,21.6170886 149.606013,21.4642405 147.975949,21.5439873 C144.01519,21.6968354 143.683861,30.4338608 143.81962,33.946519 Z" id="Shape" fill="#FFFFFF"></path>
                <path d="M173.078165,48.7737342 C175.597785,48.7737342 175.97943,49.1762658 175.953797,51.6360759 C175.978481,53.9848101 175.648101,54.6075949 173.019304,54.6075949 C170.497785,54.6075949 170.214873,54.0417722 170.186392,51.6360759 C170.212025,49.2246835 170.497785,48.7737342 173.078165,48.7737342 Z" id="Path" fill="#FFFFFF"></path>
                <path d="M191.887025,54.9949367 C189.313291,54.9949367 185.418987,54.7177215 182.803481,54.3731013 L182.960127,15.3977848 L186.880063,15.3977848 L186.825949,27.1063291 C188.981962,26.3193038 192.601899,26.0933544 194.170253,26.0933544 C199.824684,26.0933544 201.87057,29.5689873 201.860166,38.5329114 C201.766139,49.8949367 200.793038,54.9949367 191.887025,54.9949367 Z M193.428797,29.7322785 C191.526266,29.7322785 188.693354,29.9610759 186.859177,30.6322785 L186.712025,51.075 C188.124684,51.1851266 190.14019,51.1851266 191.373418,51.1851266 L191.764557,51.1851266 C197.588924,51.1851266 197.639241,47.4332278 197.679114,38.6905063 C197.748418,32.9268987 197.464557,29.7322785 193.428797,29.7322785 Z" id="Shape" fill="#FFFFFF"></path>
                <path d="M214.774367,25.8683544 C216.95981,25.8683544 223.324367,26.2025316 226.525633,27.3825949 L226.519937,54.4908228 L223.44019,54.4908228 L222.866772,52.7496835 C219.682595,54.4338608 216.585759,54.8268987 214.344304,54.8268987 C210.368354,54.8268987 208.123101,52.0841772 207.457595,45.7528481 C207.28481,44.1218354 207.189873,42.168038 207.247785,38.4683544 C207.483228,29.5110759 209.118987,25.8683544 214.774367,25.8683544 Z M211.582595,38.6420886 C211.548418,41.4968354 211.621519,43.8522152 211.813291,45.6436709 C212.238608,49.6737342 213.197468,51.3522152 215.154114,51.3522152 C216.837342,51.3522152 219.398734,50.681962 222.376899,49.1762658 C222.370253,42.7253165 222.45,36.5136076 222.45,30.1281646 C220.273101,29.6781646 217.236076,29.568038 215.388608,29.568038 L215.052532,29.568038 C211.583544,29.568038 211.583544,34.3851266 211.574051,38.5803797 L211.582595,38.6420886 Z" id="Shape" fill="#FFFFFF"></path>
                <path d="M104.50538,0.158544304 C109.500949,0.158544304 110.095253,0.625632911 110.089557,5.77594937 C110.103797,10.378481 109.522785,11.5518987 104.452215,11.5518987 C99.2268987,11.5518987 98.8699367,10.3775316 98.8509494,5.77594937 C98.8927215,0.939873418 99.2781646,0.158544304 104.50538,0.158544304 Z" id="Path" fill="#A59573"></path>
                <path d="M122.898418,0 C127.891139,0 128.56519,0.467088608 128.56519,5.62025316 C128.577532,10.2227848 127.916772,11.3914557 122.846203,11.3914557 C117.618038,11.3914557 117.339873,10.2227848 117.326582,5.62025316 C117.362658,0.781329114 117.75,0 122.898418,0 Z" id="Path" fill="#A59573"></path>
            </g>
            <path d="M94.2294304,26.3126582 C93.8335443,25.8379747 93.4310127,25.3708861 93.0227848,24.9085443 C92.0041139,23.7598101 90.9446203,22.6585443 89.8300633,21.6028481 C89.4398734,21.2344937 89.043038,20.8727848 88.6414557,20.5158228 C87.5079114,19.5056962 86.3401899,18.5458861 85.1231013,17.6344937 C84.6009494,17.2414557 84.0693038,16.8617089 83.5310127,16.4876582 C82.4183544,15.7148734 81.2848101,14.9848101 80.1132911,14.2946203 C79.7639241,14.0905063 79.0917722,13.7287975 79.0917722,13.7287975 C78.1414557,13.1962025 77.2224684,12.6132911 76.2379747,12.1376582 C76.2170886,12.4091772 76.2408228,12.6806962 76.1981013,12.9446203 L74.8006329,21.9275316 L74.4996835,23.8832278 C76.2246835,24.9047468 77.8575949,26.0620253 79.4268987,27.2990506 C80.2063291,27.9560127 80.9268987,28.6803797 81.6759494,29.3705696 C82.639557,29.1816456 83.6753165,29.0762658 84.8174051,29.0762658 C87.0474684,29.0762658 92.2015823,29.560443 97.4914557,30.6009494 C96.8506329,29.6496835 94.6651899,26.8424051 94.2294304,26.3126582 Z" id="Path" fill="#FFFFFF"></path>
        </g>
    </g>
</svg>