<?xml version="1.0" encoding="UTF-8"?>
<svg width="1024px" height="500px" viewBox="0 0 1024 500" version="1.1" xmlns="http://www.w3.org/2000/svg" xmlns:xlink="http://www.w3.org/1999/xlink">
    <title>Logo Light 1024x500</title>
    <g id="Logo-Light-1024x500" stroke="none" stroke-width="1" fill="none" fill-rule="evenodd">
        <rect fill="#FFFFFF" x="0" y="0" width="1024" height="500"></rect>
        <g id="logo" transform="translate(262.488441, 155.039943)" fill-rule="nonzero">
            <g id="Group">
                <path d="M50.0612674,42.11107 C60.2205274,35.256857 72.2070949,31.0308913 85.1499953,30.3790221 L85.3586498,28.9938 L87.4230645,15.5521932 C87.6491069,14.1142464 88.1723238,11.3597795 87.9510236,11.3597795 C69.1705399,11.5019764 51.8379919,17.6947338 37.5562252,27.960076 L49.5506962,41.5310981 L50.0612674,42.11107 Z" id="Path" fill="#6E6F72"></path>
                <path d="M154.650905,137.712162 L148.373883,137.659437 C148.03719,138.188282 146.967046,139.768426 146.619288,140.297271 C134.044694,159.172719 112.76668,171.647706 88.6196664,171.647706 C50.0407181,171.647706 18.6587686,139.918611 18.6587686,100.929484 C18.6587686,91.1897909 20.7231833,81.9629658 24.278213,73.523816 L21.6921621,70.5856114 L10.9148422,58.3870297 C4.06718159,71.0697202 -2.27373675e-13,85.493924 -2.27373675e-13,100.929484 C-2.27373675e-13,150.308576 39.7518393,190.49759 88.6196664,190.49759 C124.501914,190.49759 155.406487,168.781398 169.32785,137.712162 L163.182028,137.712162 L154.650905,137.712162 Z" id="Path" fill="#6E6F72"></path>
                <path d="M118.242279,7.4693346 C117.243267,3.72108669 114.175098,0.730157414 110.144273,0.0958631179 C109.677961,0.0335520913 109.222715,0 108.765888,0 C105.816273,0 103.148025,1.39001521 101.259069,3.53415361 C100.04508,4.9305597 99.0602938,6.54425551 98.7552157,8.51104715 L96.6908009,21.9286882 L85.0361838,96.8537034 L42.1055251,48.2511027 L29.700068,34.200765 L26.7646789,30.890292 C24.7919456,28.6423019 22.0478231,27.4951399 19.2863127,27.4951399 C16.9421113,27.4951399 14.5757798,28.3323445 12.6789209,30.0435011 C8.55009142,33.7486106 8.18336537,40.1362897 11.844303,44.2903582 L16.3003407,49.3295627 L29.1373332,63.8767909 L84.1936623,126.258117 C86.1094898,128.435808 88.8378051,129.635694 91.646737,129.635694 C92.5761978,129.635694 93.5246273,129.4919 94.4572496,129.228276 C98.1624473,128.132241 100.911312,124.957574 101.510403,121.09429 L116.158896,26.7362236 L118.485709,11.6186099 C118.710171,10.1790654 118.591617,8.78265932 118.242279,7.4693346 Z" id="Path" fill="#A59573"></path>
            </g>
            <g id="Group" transform="translate(121.618477, 35.174740)">
                <path d="M20.0420483,25.0487676 C24.9794402,25.0487676 38.5126053,26.4939808 49.7533534,29.6364422 L49.8845745,92.0422172 L37.1545459,92.0422172 L35.6368077,87.4529474 C30.4195829,90.9878177 24.1130647,92.827035 19.4349531,92.827035 C5.9223407,92.827035 2.07424213,82.0740743 0.845822818,70.2810705 C0.409473102,66.0858047 0.113830361,62.0197467 0,54.6836146 C0.0521722486,33.9688916 5.62195503,25.0487676 20.0420483,25.0487676 Z M16.87377,57.038068 C17.1567649,63.4569841 17.5852097,71.3386603 18.7029606,77.0955859 C19.6768426,81.4232498 21.3068301,82.0740743 24.5889389,81.1680245 C27.8678856,80.2492134 30.8116652,78.5423942 33.8977328,76.9584023 L34.1332984,36.8497471 C30.4401356,36.3217498 26.5098262,36.0649294 23.8000312,36.1989226 C17.2010323,36.4557431 16.6508522,51.135983 16.87377,57.038068 Z" id="Shape" fill="#6E6F72"></path>
                <polygon id="Path" fill="#6E6F72" points="60.9008239 91.6482131 61.2881633 3.02441975 78.0528458 3.02441975 77.7556221 47.6027078 79.8583218 47.6027078 89.2382597 25.0471724 106.771297 25.0471724 94.1867185 54.021624 114.731518 91.646618 96.8032358 91.646618 79.77453 60.4501111 77.7951465 60.4501111 77.5358663 91.646618 60.9008239 91.646618"></polygon>
                <path d="M125.513782,76.5691837 C125.246597,73.9515292 125.216559,71.1903106 125.28296,38.1625622 L112.679409,38.1625622 C112.774268,34.0917188 112.74581,30.0256608 112.848574,26.0983816 L125.456867,26.0983816 C125.573859,20.9906854 125.668718,15.6181929 125.645003,10.5009257 L142.150406,10.5009257 L142.215226,26.0983816 L155.210859,26.0983816 C154.976874,30.027256 155.00217,34.0933139 154.908892,38.1625622 L142.042899,38.1625622 L142.052385,75.6551581 C142.589917,80.7612592 144.286306,80.8984428 148.056937,80.8984428 C149.612618,80.8984428 151.813338,80.7612592 156.0219,79.9780365 C155.889098,83.7824886 156.088301,86.934521 156.211617,90.5954088 C156.257465,90.9862225 156.154702,91.2573994 156.176836,91.5237908 C151.732709,92.5590484 148.518582,92.8254401 146.313119,92.8254401 C131.10728,92.827035 126.59359,86.9361161 125.513782,76.5691837 Z" id="Path" fill="#6E6F72"></path>
                <polygon id="Path" fill="#6E6F72" points="164.769447 91.6482131 165.090385 26.2212088 182.24715 26.2212088 181.916726 91.6482131"></polygon>
                <path d="M188.590031,104.600897 C194.463361,103.560854 195.321832,100.539624 195.340804,97.0015637 L195.737629,26.0967864 L212.761592,26.0967864 L212.423263,95.0283531 C212.262003,111.029384 205.588698,114.307434 196.238799,114.307434 C195.451472,114.307434 194.155071,114.307434 188.616907,113.522616 L188.590031,104.600897 Z" id="Path" fill="#6E6F72"></path>
                <path d="M242.664195,25.0487676 C247.601587,25.0487676 261.136333,26.4939808 272.377081,29.6364422 L272.514626,92.0422172 L259.773531,92.0422172 L258.260535,87.4529474 C253.04331,90.9878177 246.73363,92.827035 242.063424,92.827035 C228.539744,92.827035 224.704294,82.0740743 223.467969,70.2810705 C223.034782,66.0858047 222.735977,62.0197467 222.623728,54.6836146 C222.6759,33.9688916 228.239359,25.0487676 242.664195,25.0487676 Z M239.502241,57.038068 C239.780493,63.4569841 240.208937,71.3386603 241.321945,77.0955859 C242.295827,81.4232498 243.932139,82.0740743 247.207924,81.1680245 C250.494775,80.2492134 253.433812,78.5423942 256.523041,76.9584023 L256.753864,36.8497471 C253.070187,36.3217498 249.138297,36.0649294 246.423759,36.1989226 C239.827922,36.4557431 239.276161,51.135983 239.502241,57.038068 Z" id="Shape" fill="#6E6F72"></path>
                <path d="M288.226378,81.9512471 C292.422291,81.9512471 293.057844,82.6275941 293.015158,86.7606487 C293.056263,90.7070699 292.506083,91.7534936 288.128357,91.7534936 C283.929282,91.7534936 283.45815,90.8027794 283.410721,86.7606487 C283.453407,82.7089472 283.929282,81.9512471 288.226378,81.9512471 Z" id="Path" fill="#6E6F72"></path>
                <path d="M319.548699,92.4043181 C315.262669,92.4043181 308.777501,91.9385319 304.421908,91.3594895 L304.68277,25.8718691 L311.210625,25.8718691 L311.120509,45.5449539 C314.710908,44.2225678 320.739174,43.8429202 323.350949,43.8429202 C332.767249,43.8429202 336.174255,49.682794 336.156931,64.7442767 C336.000348,83.8351288 334.379846,92.4043181 319.548699,92.4043181 Z M322.116206,49.9571612 C318.947927,49.9571612 314.230291,50.3415943 311.175843,51.4693711 L310.930792,85.8179103 C313.283286,86.0029487 316.639701,86.0029487 318.69339,86.0029487 L319.344753,86.0029487 C329.044048,86.0029487 329.12784,79.6988839 329.194241,65.009073 C329.309652,55.3248682 328.83694,49.9571612 322.116206,49.9571612 Z" id="Shape" fill="#6E6F72"></path>
                <path d="M357.662898,43.4648678 C361.302307,43.4648678 371.901179,44.0263634 377.232234,46.0091449 L377.222748,91.5572891 L372.094058,91.5572891 L371.139148,88.6317692 C365.83655,91.4615797 360.679402,92.1219751 356.946715,92.1219751 C350.325582,92.1219751 346.586571,87.5135634 345.478306,76.875454 C345.190568,74.1349724 345.032471,70.8521371 345.12891,64.635806 C345.520993,49.5854894 348.245016,43.4648678 357.662898,43.4648678 Z M352.347652,64.9277199 C352.290737,69.7243603 352.412472,73.6819475 352.73183,76.6920109 C353.440107,83.463457 355.036894,86.2836965 358.295289,86.2836965 C361.098361,86.2836965 365.363838,85.1575149 370.323363,82.6275941 C370.312296,71.7884949 370.445099,61.3513755 370.445099,50.6223421 C366.819918,49.8662372 361.762372,49.6811988 358.68579,49.6811988 L358.126124,49.6811988 C352.349233,49.6811988 352.349233,57.775031 352.333423,64.8240346 L352.347652,64.9277199 Z" id="Shape" fill="#6E6F72"></path>
                <path d="M174.032392,0.266391402 C182.351495,0.266391402 183.341186,1.05120918 183.331701,9.70494185 C183.355415,17.4382683 182.387857,19.4098837 173.943858,19.4098837 C165.242159,19.4098837 164.647712,17.4366731 164.616092,9.70494185 C164.685655,1.57920651 165.327532,0.266391402 174.032392,0.266391402 Z" id="Path" fill="#A59573"></path>
                <path d="M204.662245,0 C212.976605,0 214.099098,0.784817782 214.099098,9.44333592 C214.119651,17.1766624 213.019291,19.140302 204.575292,19.140302 C195.86885,19.140302 195.405624,17.1766624 195.38349,9.44333592 C195.443567,1.31281511 196.088606,0 204.662245,0 Z" id="Path" fill="#A59573"></path>
            </g>
            <path d="M157.120197,43.759985 C156.46589,42.9629879 155.8006,42.1787428 155.125895,41.4024676 C153.442272,39.4737345 151.691177,37.6247012 149.849076,35.8521796 C149.204184,35.2337099 148.548308,34.626398 147.884587,34.0270562 C146.011105,32.3310463 144.081135,30.7195182 142.069574,29.1892837 C141.206579,28.5293701 140.327894,27.8917724 139.438225,27.2637386 C137.599262,25.9662273 135.72578,24.7404458 133.789534,23.5816119 C133.212112,23.2389032 132.101203,22.6315914 132.101203,22.6315914 C130.530553,21.7373606 129.011683,20.7586481 127.384546,19.960057 C127.350026,20.4159394 127.389253,20.8718217 127.318644,21.3149521 L125.008957,36.3973256 L124.511559,39.6809538 C127.362579,41.3960916 130.061398,43.3391706 132.655088,45.4161451 C133.943304,46.5191891 135.134236,47.7354067 136.372241,48.8942405 C137.964858,48.5770356 139.676725,48.4001023 141.56433,48.4001023 C145.2501,48.4001023 153.76864,49.2130393 162.511559,50.960057 C161.452429,49.3628748 157.840405,44.6494338 157.120197,43.759985 Z" id="Path" fill="#6E6F72"></path>
        </g>
    </g>
</svg>