<?xml version="1.0" encoding="UTF-8"?>
<svg width="1280px" height="720px" viewBox="0 0 1280 720" version="1.1" xmlns="http://www.w3.org/2000/svg" xmlns:xlink="http://www.w3.org/1999/xlink">
    <title>Logo Light 1280x720</title>
    <g id="Logo-Light-1280x720" stroke="none" stroke-width="1" fill="none" fill-rule="evenodd">
        <rect fill="#FFFFFF" x="0" y="0" width="1280" height="720"></rect>
        <g id="logo" transform="translate(292.680944, 228.055000)" fill-rule="nonzero">
            <g id="Group">
                <path d="M69.7912963,57.9854 C83.9545,48.5474 100.665185,42.7284 118.709111,41.8308 L119,39.9234 L121.878037,21.4148 C122.193167,19.4348 122.922593,15.642 122.614074,15.642 C96.4318704,15.8378 72.2682593,24.365 52.3577963,38.5 L69.0795,57.1868 L69.7912963,57.9854 Z" id="Path" fill="#6E6F72"></path>
                <path d="M215.601556,189.6246 L206.850648,189.552 C206.381259,190.2802 204.889352,192.456 204.404537,193.1842 C186.874074,219.175 157.210019,236.3526 123.546241,236.3526 C69.7626481,236.3526 26.0125185,192.6628 26.0125185,138.9762 C26.0125185,125.565 28.8905556,112.86 33.8466852,101.2396 L30.2414259,97.1938 L15.2165741,80.3968 C5.67012963,97.8604 0,117.722 0,138.9762 C0,206.9694 55.4187407,262.3082 123.546241,262.3082 C173.570315,262.3082 216.654926,232.4058 236.062944,189.6246 L227.494944,189.6246 L215.601556,189.6246 Z" id="Path" fill="#6E6F72"></path>
                <path d="M164.843648,10.285 C163.450907,5.1238 159.173519,1.0054 153.554074,0.132 C152.903981,0.0462 152.269315,0 151.632444,0 C147.520333,0 143.800481,1.914 141.167056,4.8664 C139.474611,6.7892 138.101704,9.0112 137.676389,11.7194 L134.798352,30.195 L118.550444,133.364 L58.7000556,66.44 L41.4053889,47.0932 L37.3131111,42.5348 C34.5628889,39.4394 30.7372593,37.8598 26.8873889,37.8598 C23.6192963,37.8598 20.3203519,39.0126 17.6759074,41.3688 C11.9198333,46.4706 11.4085741,55.2662 16.5123519,60.9862 L22.7245926,67.925 L40.6208704,87.956 L117.37587,173.8528 C120.046759,176.8514 123.850352,178.5036 127.766333,178.5036 C129.062111,178.5036 130.384333,178.3056 131.684519,177.9426 C136.85,176.4334 140.682241,172.062 141.517444,166.7424 L161.939167,36.8148 L165.183019,15.9984 C165.495944,14.0162 165.330667,12.0934 164.843648,10.285 Z" id="Path" fill="#A59573"></path>
            </g>
            <g id="Group" transform="translate(168.468118, 47.241822)">
                <path d="M27.9422208,34.6326438 C34.8258333,34.6326438 53.6935,36.6308082 69.365125,40.9756027 L69.5480708,127.25837 L51.8001208,127.25837 L49.6841208,120.913205 C42.4103708,125.800548 33.61795,128.343466 27.0958208,128.343466 C8.25680833,128.343466 2.89186667,113.476329 1.17922917,97.1712192 C0.570879167,91.3708082 0.1587,85.7490411 0,75.6060411 C0.0727375,46.9656849 7.83801667,34.6326438 27.9422208,34.6326438 Z M23.5250708,78.8613288 C23.9196167,87.7361781 24.5169458,98.6334521 26.0752917,106.593027 C27.4330583,112.576493 29.7055542,113.476329 34.2814042,112.223616 C38.8528458,110.95326 42.9570042,108.593397 47.2595375,106.403356 L47.5879583,50.9487808 C42.439025,50.2187671 36.9594667,49.8636849 33.181525,50.0489452 C23.9813333,50.4040274 23.2142833,70.7010548 23.5250708,78.8613288 Z" id="Shape" fill="#6E6F72"></path>
                <polygon id="Path" fill="#6E6F72" points="84.9067042 126.713616 85.446725 4.18158904 108.819708 4.18158904 108.405325 65.8159178 111.336867 65.8159178 124.414187 34.6304384 148.858396 34.6304384 131.313229 74.6907671 159.956375 126.711411 134.961125 126.711411 111.220046 83.5788493 108.460429 83.5788493 108.098946 126.711411 84.9067042 126.711411"></polygon>
                <path d="M174.988792,105.865219 C174.616287,102.246027 174.574408,98.4283425 174.666983,52.7638904 L157.095367,52.7638904 C157.227617,47.1355068 157.187942,41.5137397 157.331212,36.0838493 L174.909442,36.0838493 C175.07255,29.0219041 175.2048,21.5938493 175.171738,14.5186712 L198.183238,14.5186712 L198.273608,36.0838493 L216.391858,36.0838493 C216.065642,41.5159452 216.100908,47.1377123 215.970863,52.7638904 L198.033354,52.7638904 L198.046579,104.601479 C198.795996,111.661219 201.161067,111.85089 206.418004,111.85089 C208.586904,111.85089 211.655104,111.661219 217.522596,110.578329 C217.337446,115.838397 217.615171,120.196425 217.787096,125.258 C217.851017,125.798342 217.707746,126.173274 217.738604,126.541589 C211.542692,127.972945 207.061621,128.341261 203.986808,128.341261 C182.787133,128.343466 176.494237,120.19863 174.988792,105.865219 Z" id="Path" fill="#6E6F72"></path>
                <polygon id="Path" fill="#6E6F72" points="229.71825 126.713616 230.165696 36.2536712 254.085312 36.2536712 253.624642 126.713616"></polygon>
                <path d="M262.928429,144.62211 C271.116908,143.184137 272.313771,139.006959 272.340221,134.115205 L272.893467,36.0816438 L296.627933,36.0816438 L296.156242,131.387027 C295.931417,153.510192 286.627629,158.042452 273.592187,158.042452 C272.494512,158.042452 270.687096,158.042452 262.9659,156.957356 L262.928429,144.62211 Z" id="Path" fill="#6E6F72"></path>
                <path d="M338.317542,34.6326438 C345.201154,34.6326438 364.071025,36.6308082 379.74265,40.9756027 L379.934412,127.25837 L362.171033,127.25837 L360.061646,120.913205 C352.787896,125.800548 343.991067,128.343466 337.479958,128.343466 C318.625517,128.343466 313.278208,113.476329 311.55455,97.1712192 C310.950608,91.3708082 310.534021,85.7490411 310.377525,75.6060411 C310.450262,46.9656849 318.206725,34.6326438 338.317542,34.6326438 Z M333.909208,78.8613288 C334.297142,87.7361781 334.894471,98.6334521 336.446204,106.593027 C337.803971,112.576493 340.085283,113.476329 344.652317,112.223616 C349.234779,110.95326 353.332325,108.593397 357.639267,106.403356 L357.961075,50.9487808 C352.825367,50.2187671 347.343604,49.8636849 343.55905,50.0489452 C334.363267,50.4040274 333.594012,70.7010548 333.909208,78.8613288 Z" id="Shape" fill="#6E6F72"></path>
                <path d="M401.839421,113.306507 C407.689279,113.306507 408.575354,114.24163 408.515842,119.956027 C408.57315,125.412384 407.8061,126.859178 401.702762,126.859178 C395.848496,126.859178 395.191654,125.544712 395.125529,119.956027 C395.185042,114.35411 395.848496,113.306507 401.839421,113.306507 Z" id="Path" fill="#6E6F72"></path>
                <path d="M445.508371,127.759014 C439.532875,127.759014 430.491383,127.115014 424.418904,126.314425 L424.782592,35.7706712 L433.883596,35.7706712 L433.757958,62.9708493 C438.763621,61.1425068 447.168108,60.6176027 450.809392,60.6176027 C463.937408,60.6176027 468.687387,68.691863 468.663234,89.516 C468.444929,115.911178 466.185658,127.759014 445.508371,127.759014 Z M449.087937,69.0712055 C444.670787,69.0712055 438.093554,69.602726 433.835104,71.162 L433.493458,118.652589 C436.773258,118.908425 441.452704,118.908425 444.315917,118.908425 L445.224033,118.908425 C458.746596,118.908425 458.863417,110.19237 458.955992,89.8821096 C459.116896,76.4926438 458.45785,69.0712055 449.087937,69.0712055 Z" id="Shape" fill="#6E6F72"></path>
                <path d="M498.646421,60.0949041 C503.720412,60.0949041 518.497146,60.8712329 525.929596,63.6126438 L525.916371,126.587904 L518.766054,126.587904 L517.434737,122.543055 C510.041962,126.455575 502.851971,127.368644 497.647933,127.368644 C488.416883,127.368644 483.204029,120.997014 481.658908,106.288671 C481.25775,102.499658 481.037333,97.9607808 481.171787,89.3660274 C481.718421,68.5573288 485.5162,60.0949041 498.646421,60.0949041 Z M491.236012,89.7696301 C491.156663,96.4015068 491.326383,101.873301 491.771625,106.035041 C492.759092,115.397301 494.9853,119.296589 499.528088,119.296589 C503.436075,119.296589 509.382917,117.739521 516.297387,114.24163 C516.281958,99.2553973 516.467108,84.8249452 516.467108,69.9908904 C511.412954,68.9454932 504.361825,68.6896575 500.072517,68.6896575 L499.292242,68.6896575 C491.238217,68.6896575 491.238217,79.8802603 491.216175,89.626274 L491.236012,89.7696301 Z" id="Shape" fill="#6E6F72"></path>
                <path d="M242.632462,0.368315068 C254.230787,0.368315068 255.610596,1.45341096 255.597371,13.418137 C255.630433,24.1103014 254.281483,26.836274 242.509029,26.836274 C230.377296,26.836274 229.548529,24.1080959 229.504446,13.418137 C229.601429,2.18342466 230.496321,0.368315068 242.632462,0.368315068 Z" id="Path" fill="#A59573"></path>
                <path d="M285.335987,7.10542736e-15 C296.9277,7.10542736e-15 298.492658,1.08509589 298.492658,13.0564384 C298.521312,23.7486027 296.987212,26.4635479 285.214758,26.4635479 C273.076412,26.4635479 272.430592,23.7486027 272.399733,13.0564384 C272.483492,1.81510959 273.382792,7.10542736e-15 285.335987,7.10542736e-15 Z" id="Path" fill="#A59573"></path>
            </g>
            <path d="M218.799525,60.9578034 C217.886939,59.8522912 216.959034,58.7644673 216.017998,57.6876985 C213.669786,55.0123591 211.227471,52.447571 208.658225,49.988912 C207.75877,49.1310346 206.843996,48.2886343 205.918279,47.4572892 C203.305264,45.1047594 200.613465,42.8694138 197.807866,40.7468305 C196.604215,39.8314665 195.378681,38.9470568 194.137827,38.0759132 C191.572958,36.2761394 188.959942,34.5758618 186.259389,32.9684471 C185.454038,32.4930769 183.904612,31.6506767 183.904612,31.6506767 C181.713968,30.4102921 179.595544,29.0527232 177.326116,27.945 C177.27797,28.5773529 177.332682,29.2097059 177.234201,29.8243706 L174.012796,50.7450823 L173.319056,55.2997923 C177.295478,57.6788544 181.05962,60.374093 184.677136,63.2550576 C186.473858,64.7850864 188.134895,66.4720979 189.861586,68.0795125 C192.082868,67.6395187 194.470472,67.394095 197.103183,67.394095 C202.243864,67.394095 214.124985,68.5217174 226.319056,70.945 C224.841849,68.7295537 219.804025,62.1915549 218.799525,60.9578034 Z" id="Path" fill="#6E6F72"></path>
        </g>
    </g>
</svg>